<?xml version="1.0" standalone="no"?>
<!DOCTYPE svg PUBLIC "-//W3C//DTD SVG 20010904//EN"
 "http://www.w3.org/TR/2001/REC-SVG-20010904/DTD/svg10.dtd">
<svg version="1.0" xmlns="http://www.w3.org/2000/svg"
 width="500.000000pt" height="500.000000pt" viewBox="0 0 500.000000 500.000000"
 preserveAspectRatio="xMidYMid meet">

<g transform="translate(0.000000,500.000000) scale(0.100000,-0.100000)"
fill="#000000" stroke="none">
<path d="M0 2500 l0 -2500 2500 0 2500 0 0 2500 0 2500 -2500 0 -2500 0 0
-2500z m2686 1989 c533 -52 1009 -303 1350 -712 236 -282 395 -641 445 -1007
19 -139 17 -431 -5 -565 -85 -535 -359 -992 -785 -1309 -268 -199 -589 -331
-921 -377 -123 -17 -418 -17 -540 0 -801 113 -1454 689 -1660 1465 -179 673 2
1388 478 1887 429 451 1030 678 1638 618z"/>
<path d="M2295 3298 c-7 -20 -425 -1684 -425 -1691 0 -4 16 -7 35 -7 31 0 35
3 44 38 10 39 408 1625 415 1655 3 14 -3 17 -30 17 -19 0 -37 -6 -39 -12z"/>
<path d="M2226 2473 c-115 -461 -211 -846 -214 -855 -4 -15 2 -18 32 -18 20 0
36 1 36 3 0 2 96 386 214 855 l214 852 -36 0 -37 0 -209 -837z"/>
<path d="M2362 2466 c-117 -465 -212 -849 -212 -855 0 -6 15 -11 33 -11 l32 0
213 848 c117 466 213 850 212 855 0 4 -15 7 -33 7 l-34 0 -211 -844z"/>
<path d="M1188 3016 l-558 -221 0 -37 c0 -21 1 -38 3 -38 1 0 256 101 567 225
l565 224 3 36 c2 24 -1 35 -10 34 -7 -1 -264 -101 -570 -223z"/>
<path d="M3242 3205 l3 -38 507 -201 c279 -111 508 -203 508 -206 0 -3 -229
-97 -510 -209 l-510 -202 0 -35 c0 -19 3 -34 8 -34 4 0 257 99 562 219 l555
219 3 39 3 39 -548 217 c-301 119 -556 219 -566 223 -16 6 -18 2 -15 -31z"/>
<path d="M1195 2876 l-560 -222 -3 -37 c-2 -20 0 -37 5 -37 4 1 260 101 568
223 546 217 560 223 563 251 2 16 0 32 -5 36 -4 4 -260 -92 -568 -214z"/>
<path d="M3240 3062 l1 -37 399 -158 399 -158 43 22 c37 19 40 23 23 29 -11 4
-182 72 -380 150 -198 78 -388 153 -422 166 l-63 24 0 -38z"/>
<path d="M3240 2922 l0 -38 308 -123 307 -123 43 17 c24 10 40 21 35 26 -4 4
-158 67 -342 139 -184 72 -338 133 -343 136 -4 3 -8 -12 -8 -34z"/>
<path d="M1630 2906 c-58 -24 -306 -123 -552 -220 l-448 -178 0 -34 c0 -19 4
-34 10 -34 14 0 1103 431 1118 443 6 5 12 22 12 38 0 38 -11 37 -140 -15z"/>
<path d="M1690 2786 c-30 -13 -281 -112 -557 -221 l-503 -198 0 -38 c0 -36 2
-38 53 -57 28 -11 281 -111 560 -221 280 -111 513 -201 518 -201 5 0 9 15 9
33 l0 34 -515 204 c-283 112 -515 206 -515 209 0 3 28 16 63 29 34 13 266 105
515 203 l452 180 0 34 c0 40 -5 41 -80 10z"/>
<path d="M3242 2774 l3 -37 213 -84 214 -84 44 17 c25 9 41 20 37 24 -9 8
-497 200 -508 200 -3 0 -5 -16 -3 -36z"/>
<path d="M3850 2449 c-278 -111 -529 -210 -557 -221 -51 -20 -53 -22 -53 -58
l0 -38 138 54 c75 30 328 130 562 222 l425 168 3 37 c2 20 0 37 -5 37 -4 0
-235 -91 -513 -201z"/>
<path d="M1280 2500 c-44 -18 -44 -18 -20 -28 191 -77 491 -192 499 -192 15 0
14 55 -1 67 -11 9 -425 174 -431 172 -1 0 -22 -8 -47 -19z"/>
<path d="M3800 2286 l-555 -221 -3 -39 c-2 -21 1 -37 6 -35 5 2 260 103 566
224 l556 220 0 38 c0 20 -3 37 -7 36 -5 0 -258 -101 -563 -223z"/>
<path d="M1102 2433 c-24 -8 -40 -19 -35 -23 8 -8 664 -269 687 -273 6 -1 11
12 11 33 l0 35 -305 122 c-168 67 -307 122 -310 122 -3 0 -25 -7 -48 -16z"/>
<path d="M920 2358 c-39 -17 -42 -21 -25 -28 11 -4 209 -82 441 -174 231 -91
424 -166 428 -166 4 0 6 16 4 35 l-3 36 -400 159 c-220 88 -400 160 -400 159
0 0 -20 -10 -45 -21z"/>
<path d="M3805 2145 l-560 -222 -3 -38 c-3 -33 -1 -36 16 -30 34 10 1105 434
1109 439 2 2 3 19 1 38 l-3 35 -560 -222z"/>
<path d="M2760 2075 l0 -35 165 0 165 0 0 35 0 35 -165 0 -165 0 0 -35z"/>
<path d="M2760 1945 l0 -35 165 0 165 0 0 35 0 35 -165 0 -165 0 0 -35z"/>
<path d="M2760 1815 l0 -35 165 0 165 0 0 35 0 35 -165 0 -165 0 0 -35z"/>
</g>
</svg>
